<?xml version="1.0" encoding="utf-8"?>
<!-- Generator: Adobe Illustrator 23.0.5, SVG Export Plug-In . SVG Version: 6.00 Build 0)  -->
<svg version="1.1" id="Слой_1" xmlns="http://www.w3.org/2000/svg" xmlns:xlink="http://www.w3.org/1999/xlink" x="0px" y="0px"
	 width="109" height="44" viewBox="0 0 109 44" style="enable-background:new 0 0 109 44;" xml:space="preserve">
<style type="text/css">
	.st0{enable-background:new    ;}
</style>
<g class="st0">
	<path d="M16,7.2h-1.8c-5.3,0-7.9,2.9-8.8,9.9c0.1-0.2,0.2-0.6,1.2-1.7c0.9-1.1,1.9-2,4-2.7c1.1-0.4,2.2-0.5,3.4-0.5
		c6.2,0,10.6,4.9,10.6,11.3c0,6.3-5,11.2-11.3,11.2c-7.3,0-11.7-5-11.7-14.1C1.6,8,6.6,3.1,15.1,3.1h1.4c2.5,0,3.6-1,3.6-2.3h4
		C24.1,5.1,21.5,7.2,16,7.2z M13.3,30.6c4,0,7.2-3.2,7.2-7.2c0-4-3.2-7.2-7.2-7.2s-7.2,3.2-7.2,7.2C6.1,27.7,9.3,30.6,13.3,30.6z"/>
	<path d="M34.4,42.7h-4.5L36,29.8L25.5,11.2h4.6l8,14.2l6.8-14.2h4.5L34.4,42.7z"/>
	<path d="M53.9,11.2h4v18.4h7.4V11.2h4v18.4h7.4V11.2h4v22.5h-27V11.2z"/>
	<path d="M108.6,24H89.5c0.7,3.6,3.3,6.7,8.1,6.7c4.1,0,6.1-2.2,6.7-3.5l0.7,0.4l2.6,1.4c-1.9,3.4-5.4,5.6-9.9,5.6
		c-7.3,0-12.1-5.2-12.1-12.1c0-7,4.8-12.2,11.8-12.2c3.5,0,6.3,1.2,8.5,3.6c2.1,2.4,3.1,5.3,3,8.6V24z M104.4,20.1
		c-0.5-3.8-3.8-5.9-7.2-5.9c-4,0-7,2.9-7.5,5.9H104.4z"/>
</g>
</svg>
